<?xml version="1.0" encoding="utf-8"?><svg viewBox="0 0 93 50" xmlns="http://www.w3.org/2000/svg" xmlns:xlink="http://www.w3.org/1999/xlink"><style>:root>svg{display:none}:root>svg:target{display:block}</style><svg viewBox="0 0 50 50" id="24h" xmlns="http://www.w3.org/2000/svg"><path d="M48.866 17.536a1.465 1.465 0 00-2.796.873c.664 2.125 1 4.343 1 6.591 0 12.17-9.9 22.07-22.07 22.07S2.93 37.17 2.93 25 12.83 2.93 25 2.93a22.065 22.065 0 0115.165 6.037l-3.141-.783a1.465 1.465 0 00-.709 2.843l8.44 2.103.012.003a1.466 1.466 0 001.386-.397c.364-.37.505-.904.371-1.405l-2.242-8.388a1.465 1.465 0 00-2.83.757l.878 3.284A24.992 24.992 0 0025 0C18.322 0 12.044 2.6 7.322 7.322 2.6 12.044 0 18.322 0 25c0 6.678 2.6 12.956 7.322 17.678A24.837 24.837 0 0025 50c6.678 0 12.956-2.6 17.678-7.322C47.4 37.956 50 31.678 50 25c0-2.545-.382-5.056-1.134-7.464z"/><path d="M28.337 26.192h-.123v-7.46a1.465 1.465 0 00-2.644-.869l-6.558 8.91a1.464 1.464 0 001.177 2.333l5.095.01v2.24a1.465 1.465 0 002.93 0v-2.234H28.334a1.465 1.465 0 00.003-2.93zm-5.252-.01l2.2-2.989v2.993l-2.2-.004z"/><path d="M17.597 29.877h-4.338c.688-.8 1.496-1.583 2.25-2.314 1.906-1.849 3.553-3.445 3.553-5.301a5.062 5.062 0 00-5.058-5.055 5.043 5.043 0 00-4.655 3.088 1.465 1.465 0 002.699 1.139 2.118 2.118 0 011.957-1.297c1.172 0 2.127.953 2.127 2.125 0 .032-.018.332-.615 1.072-.516.64-1.26 1.362-2.048 2.126-1.589 1.542-3.39 3.288-4.28 5.286a1.463 1.463 0 001.338 2.06h7.07a1.465 1.465 0 000-2.929zM36.635 22.269c-.49 0-.961.092-1.4.258v-3.904a1.465 1.465 0 10-2.93 0v12.754a1.465 1.465 0 102.93 0v-4.102c.018-.092.028-.188.028-.286 0-.97.628-1.79 1.372-1.79.745 0 1.373.82 1.373 1.79v4.388a1.465 1.465 0 102.93 0V26.99c0-2.602-1.93-4.72-4.303-4.72z"/><defs><clipPath id="aclip0"><path d="M0 0h50v50H0z"/></clipPath></defs></svg><svg viewBox="0 0 32 32" id="Favicon" xmlns="http://www.w3.org/2000/svg"><path opacity=".2" d="M30.746 31.502c0-.273-6.12-.497-13.66-.497s-13.66.224-13.66.497 6.12.498 13.66.498c7.558 0 13.66-.225 13.66-.498z"/><path d="M17.28 6.299c5.943 0 10.765 4.414 10.765 9.856v9.857H17.28c-5.944 0-10.766-4.415-10.766-9.857V6.3h10.766z"/><path opacity=".3" d="M26.502 11.082c-.894.948-1.437 2.184-1.437 3.532 0 2.007 1.192 3.757 2.963 4.704v-3.163a9.17 9.17 0 00-1.526-5.073z"/><path d="M22.276 7.438c-1.683.883-2.805 2.537-2.805 4.447 0 2.825 2.507 5.121 5.593 5.121a5.907 5.907 0 002.964-.786v-.065c0-3.788-2.332-7.08-5.752-8.717z"/><path opacity=".5" d="M13.825 8.209c-2.77 0-5.313.882-7.312 2.375v5.587c0 5.442 4.822 9.857 10.766 9.857h5.155c1.877-1.894 3.016-4.399 3.016-7.16 0-5.892-5.207-10.66-11.625-10.66z"/><path d="M28.028 25.996l-10.749.016c-5.944 0-10.766-4.415-10.766-9.857v-9.84l21.515 19.681z"/><path opacity=".3" d="M8.179 9.83c0 7.481 6.628 13.533 14.781 13.533.702 0 1.386-.048 2.052-.128L8.319 7.968c-.088.61-.14 1.236-.14 1.862z"/><path opacity=".3" d="M28.028 26.012L6.6 6.395c2.525 3.451 5.436 6.951 8.4 9.84 2.314 2.248 8.995 7.273 13.028 9.777z"/><path opacity=".3" d="M13.544 12.736L6.513 6.315v9.856c0 4.35 3.086 8.043 7.347 9.344-1.824-1.686-2.946-3.998-2.946-6.534 0-2.408 1-4.592 2.63-6.245z"/><path opacity=".3" d="M23.118 21.517c-1.823 2.039-4.594 3.355-7.697 3.355-2.07 0-3.998-.578-5.594-1.573 1.929 1.686 4.541 2.73 7.435 2.73h10.766v-.017l-4.91-4.495z"/><path opacity=".3" d="M7.144 12.206c0-1.59.298-3.13.86-4.543L6.512 6.315v9.856c0 5.442 4.822 9.857 10.766 9.857h10.766v-.016l-1.07-.98a15.86 15.86 0 01-4.98.788c-8.205-.017-14.85-6.1-14.85-13.614z"/><path d="M27.853 27.922c.754-.192 1.543.225 1.735.915.21.69-.245 1.413-1.017 1.59-.754.192-1.543-.225-1.735-.915-.193-.69.263-1.397 1.017-1.59zm-.281-.979c-1.35.337-2.157 1.59-1.788 2.826.35 1.236 1.735 1.974 3.086 1.637 1.35-.337 2.156-1.605 1.788-2.825-.35-1.236-1.736-1.959-3.086-1.638z"/><path opacity=".5" d="M29.36 29.961a1.505 1.505 0 01-.771.482c-.754.192-1.543-.225-1.736-.915a1.226 1.226 0 01.473-1.333 7.782 7.782 0 01-.56-.883c-.842.546-1.263 1.525-.983 2.488.35 1.237 1.736 1.975 3.086 1.638a2.564 2.564 0 001.473-.98c-.333-.16-.666-.32-.982-.497z"/><path d="M7.021 27.922c.754-.176 1.543.241 1.736.932.193.69-.263 1.412-1.017 1.589-.754.176-1.543-.241-1.736-.931-.193-.69.263-1.413 1.017-1.59zm-.28-.979c-1.35.321-2.157 1.59-1.806 2.826.35 1.236 1.735 1.974 3.086 1.653 1.35-.321 2.156-1.59 1.823-2.825-.368-1.236-1.753-1.975-3.103-1.654z"/><path opacity=".5" d="M8.512 29.977a1.385 1.385 0 01-.772.466c-.754.176-1.543-.241-1.736-.931-.14-.514.07-1.028.474-1.333a5.822 5.822 0 01-.544-.883c-.841.53-1.28 1.51-1 2.472.351 1.236 1.737 1.975 3.087 1.654a2.439 2.439 0 001.473-.98 6.73 6.73 0 01-.982-.465z"/><path d="M7.197 5.624c-.333 0-.614-.257-.614-.562 0-1.316-.403-2.311-1.175-2.97C4.163 1.018 2.287 1.13 2.27 1.13c-.333.032-.63-.208-.666-.513-.035-.305.228-.578.561-.61.105 0 2.42-.16 4.068 1.236 1.052.883 1.578 2.167 1.578 3.804 0 .321-.263.578-.613.578z"/></svg><svg viewBox="0 0 8 4" id="arrow-down" xmlns="http://www.w3.org/2000/svg"><path d="M3.36 3.894L.106.627a.37.37 0 010-.52.363.363 0 01.516 0l2.994 3.008L6.611.108a.364.364 0 01.517 0 .37.37 0 010 .52L3.876 3.893a.367.367 0 01-.517 0z"/></svg><svg viewBox="0 0 19 32" id="arrow-left" xmlns="http://www.w3.org/2000/svg"><path d="M.385 17.015l16.013 14.593a1.35 1.35 0 001.903 0 1.335 1.335 0 000-1.894L3.253 16 18.3 2.286a1.335 1.335 0 000-1.894 1.35 1.35 0 00-1.903 0L.383 14.985c-.28.279-.4.648-.381 1.014a1.33 1.33 0 00.383 1.016z"/></svg><svg viewBox="0 0 19 32" id="arrow-right" xmlns="http://www.w3.org/2000/svg"><path d="M18.31 14.985L2.297.392a1.35 1.35 0 00-1.903 0 1.335 1.335 0 000 1.894L15.442 16 .395 29.714a1.335 1.335 0 000 1.894 1.35 1.35 0 001.904 0l16.013-14.593c.28-.279.4-.648.381-1.014a1.33 1.33 0 00-.383-1.016z"/></svg><svg viewBox="0 0 32 31" id="cart-link" xmlns="http://www.w3.org/2000/svg"><path d="M31.798 4.039a.923.923 0 00-.721-.347H6.509L5.822.715A.923.923 0 004.923 0h-4a.923.923 0 000 1.846H4.19l4.663 20.208c.097.419.47.715.9.715h18.494a.923.923 0 100-1.846h-17.76l-.71-3.077h18.532c.431 0 .806-.3.9-.72l2.77-12.308a.923.923 0 00-.18-.78zM27.569 16H9.35L6.937 5.538h22.987L27.57 16zM13.538 24a3.388 3.388 0 00-3.384 3.385 3.388 3.388 0 003.384 3.384 3.388 3.388 0 003.385-3.384A3.388 3.388 0 0013.538 24zm0 4.923A1.54 1.54 0 0112 27.385c0-.849.69-1.539 1.538-1.539.849 0 1.539.69 1.539 1.539a1.54 1.54 0 01-1.539 1.538zM24.615 24a3.388 3.388 0 00-3.384 3.385 3.388 3.388 0 003.384 3.384A3.388 3.388 0 0028 27.385 3.388 3.388 0 0024.615 24zm0 4.923a1.54 1.54 0 01-1.538-1.538c0-.849.69-1.539 1.538-1.539.849 0 1.539.69 1.539 1.539a1.54 1.54 0 01-1.539 1.538z"/></svg><svg viewBox="0 0 50 50" id="delivery" xmlns="http://www.w3.org/2000/svg"><path d="M48.512 34.392a1.463 1.463 0 001.383-1.46c0-4.216-3.384-7.518-7.703-7.518h-1.428l-1.745-8.281a4.76 4.76 0 002.865-4.363 4.756 4.756 0 00-4.748-4.754h-6.75c-.808 0-1.463.656-1.463 1.465v1.824h-3.596a1.464 1.464 0 000 2.93h3.596v1.824c0 .809.655 1.465 1.463 1.465h.65a8.187 8.187 0 00-1.944 5.302v8.336a.077.077 0 01-.077.078h-5.91a.078.078 0 01-.075-.056l-1.593-5.39a3.017 3.017 0 002.233-2.91c0-3.307-2.687-5.997-5.989-5.997H4.499A4.507 4.507 0 000 21.391a4.509 4.509 0 003.871 4.46 11.307 11.307 0 00-3.779 8.441v4.561c0 .809.656 1.465 1.464 1.465H2.82c.682 3.402 3.689 5.973 7.284 5.973 3.596 0 6.603-2.57 7.284-5.973h17.898c.681 3.402 3.688 5.973 7.284 5.973 4.096 0 7.429-3.336 7.429-7.438a7.405 7.405 0 00-1.488-4.46zm-1.783-2.926h-3.294a7.425 7.425 0 00-2.395.107v-3.23h1.152c2.143 0 3.914 1.29 4.537 3.123zm-14.88-20.52h5.287a1.825 1.825 0 010 3.648h-5.287v-3.648zm-8.744 23.223h5.91a3.009 3.009 0 003.003-3.007v-8.336a5.297 5.297 0 014.123-5.16l1.974 9.366v5.873a7.452 7.452 0 00-2.828 4.483H20.74c-.683-5.256-5.023-9.188-10.44-9.188-2.416 0-4.585.79-6.295 2.146 1.413-2.646 4.2-4.45 7.4-4.45h7.01l1.809 6.12a3.021 3.021 0 002.88 2.153zM3.137 37.388c.256-1.558.922-2.964 1.94-4.053 1.329-1.422 3.184-2.205 5.223-2.205 3.774 0 6.823 2.652 7.477 6.258H3.137zM4.5 22.966a1.575 1.575 0 010-3.15H17.68a3.068 3.068 0 013.063 3.067c-.013.06-.11.1-.289.083H4.5zm5.606 20.396a4.51 4.51 0 01-4.258-3.044h8.516a4.51 4.51 0 01-4.258 3.044zm32.466 0a4.511 4.511 0 01-4.503-4.51 4.511 4.511 0 014.503-4.508 4.511 4.511 0 014.503 4.509 4.511 4.511 0 01-4.503 4.509z"/><path d="M42.57 40.328a1.474 1.474 0 10-.001-2.948 1.474 1.474 0 00.002 2.947zM1.524 12.64h13.122a1.464 1.464 0 000-2.929H1.524a1.464 1.464 0 000 2.93zM6.385 6.638H19.62a1.464 1.464 0 000-2.93H6.385a1.464 1.464 0 000 2.93z"/></svg><svg viewBox="0 0 32 32" id="facebook" xmlns="http://www.w3.org/2000/svg"><path d="M21.33 5.313h2.92V.225C23.748.156 22.014 0 19.996 0c-4.212 0-7.098 2.65-7.098 7.519V12H8.25v5.688h4.648V32h5.699V17.69h4.46L23.764 12h-5.17V8.083c.002-1.644.445-2.77 2.735-2.77z"/><defs><clipPath id="hclip0"><path d="M0 0h32v32H0z"/></clipPath></defs></svg><svg viewBox="0 0 32 29" id="favorite-link" xmlns="http://www.w3.org/2000/svg"><path d="M29.665 2.777C28.087.987 25.897 0 23.5 0c-3.372 0-5.506 2.014-6.703 3.703-.311.438-.575.878-.797 1.292a12.245 12.245 0 00-.797-1.292C14.006 2.013 11.872 0 8.5 0 6.103 0 3.913.986 2.335 2.777.829 4.486 0 6.774 0 9.22c0 2.662 1.04 5.139 3.272 7.793 1.994 2.373 4.864 4.818 8.187 7.65a385.452 385.452 0 013.883 3.34l.04.035a.935.935 0 001.236 0l.04-.035c1.364-1.193 2.644-2.284 3.883-3.34 3.323-2.832 6.193-5.277 8.187-7.65C30.96 14.36 32 11.883 32 9.22c0-2.446-.83-4.734-2.335-6.443zm-10.34 20.46c-1.068.909-2.167 1.845-3.325 2.852-1.158-1.007-2.257-1.943-3.325-2.853-6.503-5.542-10.8-9.203-10.8-14.016 0-1.99.663-3.837 1.866-5.203A6.258 6.258 0 018.5 1.875c2.57 0 4.232 1.584 5.174 2.912a11.113 11.113 0 011.435 2.854.937.937 0 001.782 0c.15-.461.591-1.662 1.436-2.854.94-1.328 2.602-2.912 5.173-2.912 1.851 0 3.541.76 4.759 2.142 1.203 1.366 1.866 3.213 1.866 5.203 0 4.813-4.297 8.474-10.8 14.016z"/></svg><svg viewBox="0 0 32 22" id="icon-address" xmlns="http://www.w3.org/2000/svg"><path d="M31.917 13.348l-1.62-2.478a3.866 3.866 0 00-3.25-1.749h-4.19v-2.41a2.671 2.671 0 00-2.669-2.67h-7.841A4.986 4.986 0 007.459 0 4.984 4.984 0 002.48 4.979c0 1.726.884 3.249 2.222 4.142H.508a.508.508 0 100 1.016h5.08v1.016H3.554a.508.508 0 100 1.016h2.032v1.015H.508a.508.508 0 100 1.017h5.08v2.25a2.548 2.548 0 00-1.525 2.328v.5c0 .282.228.509.509.509h4.505a2.811 2.811 0 002.732 2.173 2.81 2.81 0 002.733-2.173h9.773a2.811 2.811 0 002.733 2.173c1.329 0 2.444-.93 2.733-2.173h1.711c.28 0 .508-.227.508-.508v-5.654a.508.508 0 00-.083-.278zm-28.42-8.37a3.968 3.968 0 013.962-3.962 3.967 3.967 0 013.963 3.963 3.967 3.967 0 01-3.963 3.963 3.968 3.968 0 01-3.963-3.963zm3.106 9.223H7.62a.508.508 0 100-1.017H6.603V12.17h3.556a.508.508 0 100-1.016H6.603v-1.016h6.603a.508.508 0 000-1.016h-2.99a4.976 4.976 0 002.218-4.064h7.755c.91 0 1.652.742 1.652 1.653v9.522H6.603v-2.031zm15.238 4.57H14.59a2.796 2.796 0 00-.722-1.523h7.974v1.524zM6.61 17.249h3.142c-.382.413-.642.94-.721 1.524H5.079a1.532 1.532 0 011.53-1.524zm5.2 3.697a1.794 1.794 0 01-1.793-1.792c0-.988.805-1.792 1.792-1.792.989 0 1.793.804 1.793 1.792s-.804 1.792-1.793 1.792zm15.238 0a1.794 1.794 0 01-1.792-1.792c0-.988.804-1.792 1.792-1.792s1.792.804 1.792 1.792-.804 1.792-1.792 1.792zm3.936-2.173h-1.157a2.81 2.81 0 00-2.78-2.427 2.81 2.81 0 00-2.779 2.427h-1.41v-8.635h4.188c.976 0 1.874.482 2.401 1.288l1.537 2.352v4.995z"/><path d="M27.878 19.153a.83.83 0 11-1.661 0 .83.83 0 011.662 0zM12.64 19.153a.83.83 0 11-1.661 0 .83.83 0 011.661 0zM8.127 4.979V2.757a.508.508 0 10-1.016 0v2.056L6.074 6.235a.507.507 0 10.821.598L8.03 5.278a.508.508 0 00.097-.3zM26.876 10.645h-.971a.508.508 0 00-.508.508v3.555c0 .281.227.508.508.508h3.418a.874.874 0 00.764-.44.872.872 0 00.003-.88l-1.187-2.075a2.34 2.34 0 00-2.027-1.176zm-.463 3.556v-2.54h.463c.473 0 .911.254 1.145.664l1.072 1.876h-2.68z"/></svg><svg viewBox="0 0 21 20" id="icon-search" xmlns="http://www.w3.org/2000/svg"><path d="M9.02 16.472C4.477 16.472.78 12.777.78 8.236S4.476 0 9.02 0c4.545 0 8.242 3.695 8.242 8.236s-3.697 8.236-8.242 8.236zm0-14.91c-3.682 0-6.679 2.994-6.679 6.674s2.997 6.675 6.68 6.675 6.68-2.995 6.68-6.675c0-3.68-2.997-6.675-6.68-6.675zm11.53 18.21a.78.78 0 000-1.105l-3.496-3.493a.782.782 0 00-1.105 1.104l3.496 3.493a.779.779 0 001.105 0z"/></svg><svg viewBox="0 0 23 22" id="icon-tel" xmlns="http://www.w3.org/2000/svg"><path d="M21.463 16.517l-3.194-3.195a2.276 2.276 0 00-1.617-.662c-.64 0-1.242.251-1.698.707L13.71 14.61c-.966-.537-2.25-1.275-3.583-2.608-1.332-1.332-2.07-2.613-2.61-3.584l1.245-1.244c.925-.927.944-2.414.042-3.315L5.61.665A2.266 2.266 0 003.993 0a2.39 2.39 0 00-1.669.678C2.05.898.674 2.114.161 4.62c-.718 3.507.932 6.881 5.695 11.647C11.178 21.587 15.721 22 16.986 22c.264 0 .423-.016.465-.021 2.482-.291 3.37-1.393 4.02-2.198.84-1.043.837-2.415-.008-3.264zm-1.06 2.403c-.61.757-1.186 1.471-3.111 1.697-.001 0-.107.012-.306.012-1.132 0-5.211-.385-10.16-5.332C2.433 10.902.891 7.888 1.504 4.895c.448-2.186 1.635-3.115 1.682-3.15l.04-.03.037-.036a1.03 1.03 0 01.73-.308c.248 0 .478.093.647.263l3.194 3.194c.368.368.348.985-.043 1.377L6.384 7.611l-.023.025c-.367.404-.324.95-.122 1.305.583 1.052 1.382 2.493 2.918 4.03 1.532 1.532 2.97 2.33 4.02 2.911.105.06.321.158.593.158.32 0 .615-.135.832-.383l1.321-1.32c.198-.197.456-.306.728-.306.25 0 .48.093.649.261l3.192 3.193c.405.407.238 1.03-.09 1.435zM13.388 3.36c1.178.135 2.566.849 3.534 1.818.978.977 1.693 2.379 1.822 3.57a.686.686 0 101.364-.148c-.164-1.506-1.013-3.188-2.216-4.392-1.192-1.192-2.858-2.04-4.347-2.21a.686.686 0 10-.157 1.362zM12.748 6.232c.637.073 1.519.546 2.096 1.124.583.582 1.056 1.473 1.126 2.117a.686.686 0 001.364-.148c-.12-1.1-.85-2.268-1.52-2.939-.665-.665-1.822-1.391-2.91-1.516a.685.685 0 10-.156 1.362z"/></svg><svg viewBox="0 0 32 32" id="instagram" xmlns="http://www.w3.org/2000/svg"><path d="M16.005 7.784a8.21 8.21 0 00-8.21 8.21 8.21 8.21 0 008.21 8.211 8.21 8.21 0 008.211-8.21 8.21 8.21 0 00-8.21-8.211zm0 13.54a5.328 5.328 0 01-5.329-5.33 5.328 5.328 0 015.33-5.329 5.328 5.328 0 015.329 5.33 5.327 5.327 0 01-5.33 5.329z"/><path d="M22.597.101c-2.944-.137-10.236-.13-13.182 0C6.825.223 4.54.848 2.7 2.69-.377 5.767.016 9.913.016 15.995c0 6.224-.347 10.274 2.684 13.305 3.09 3.088 7.296 2.684 13.305 2.684 6.166 0 8.294.004 10.474-.84 2.964-1.15 5.201-3.8 5.42-8.559.138-2.945.13-10.236 0-13.182C31.635 3.785 28.62.379 22.597.1zm4.66 27.163C25.24 29.28 22.441 29.1 15.967 29.1c-6.667 0-9.34.099-11.291-1.857-2.247-2.236-1.84-5.827-1.84-11.27 0-7.367-.756-12.673 6.637-13.051 1.699-.06 2.199-.08 6.475-.08l.06.04c7.105 0 12.68-.744 13.015 6.648.076 1.686.093 2.193.093 6.462-.001 6.59.124 9.279-1.859 11.27z"/><path d="M24.541 9.379a1.919 1.919 0 100-3.838 1.919 1.919 0 000 3.838z"/><defs><clipPath id="mclip0"><path d="M0 0h32v32H0z"/></clipPath></defs></svg><svg viewBox="0 0 49 29" id="mastercard" xmlns="http://www.w3.org/2000/svg"><path d="M33.933 0a14.433 14.433 0 00-9.721 3.748A14.442 14.442 0 0014.495.003h-.093C6.444.055 0 6.529 0 14.498c0 8.001 6.494 14.494 14.494 14.494 3.737 0 7.145-1.417 9.716-3.745a14.336 14.336 0 01-1.482-1.584h2.993a14.492 14.492 0 01-1.472 1.553h-.002c-.012.013-.025.021-.037.032a14.44 14.44 0 009.728 3.749c8.005-.003 14.492-6.495 14.49-14.499v-.007C48.429 6.487 41.938-.002 33.933 0zM22.894 5.245h2.755c.406.492.783 1.01 1.125 1.552h-4.915a21.68 21.68 0 011.035-1.552zm-1.891 3.074h6.607c.235.502.443 1.021.625 1.553H20.22c.08-.15.36-.754.783-1.553zM5.917 18.19l.879-5.542-1.983 5.542H3.75l-.138-5.542-.939 5.542H1.184l1.234-7.35H4.67l.079 4.51 1.521-4.51h2.443l-1.217 7.35H5.917zm5.265-.012l.051-.587c-.024.003-.494.709-1.583.709-.57 0-1.49-.311-1.49-1.663 0-1.719 1.402-2.289 2.737-2.289.21 0 .663.038.663.038s.051-.105.051-.389c0-.467-.42-.531-.995-.531-1.013 0-1.682.271-1.682.271l.224-1.33s.812-.34 1.869-.34c.547 0 2.12.058 2.12 1.861l-.606 4.25h-1.359zm5.743-1.872c0 2.051-1.987 1.963-2.334 1.963-1.295 0-1.695-.179-1.732-.189l.206-1.35c.002-.012.65.235 1.371.235.416 0 .956-.041.956-.538 0-.744-1.932-.566-1.932-2.333 0-1.559 1.158-2.015 2.3-2.015.882 0 1.424.121 1.424.121l-.195 1.362s-.837-.069-1.054-.069c-.549 0-.848.12-.848.504-.001.772 1.838.394 1.838 2.309zm2.386.538c.137 0 .292-.047.398-.047l-.193 1.311c-.155.043-.594.199-1.157.203-.719.006-1.23-.396-1.23-1.308 0-.612.877-5.655.911-5.688h1.543l-.157.902h.77l-.197 1.453h-.817l-.434 2.677c-.033.213.026.497.563.497zm3.394-4.797c1.694 0 2.201 1.24 2.201 2.257 0 .407-.204 1.407-.204 1.407h-3.136s-.29 1.235 1.367 1.235c.777 0 1.639-.38 1.639-.38l-.272 1.487s-.498.254-1.63.254c-1.227 0-2.666-.519-2.666-2.699.001-1.889 1.149-3.561 2.701-3.561zm4.087 10.123H21.65c-.313-.5-.605-1.013-.856-1.552h6.843a14.886 14.886 0 01-.845 1.552zm-.345-3.969h-1.584l.963-5.982h1.437l-.138.867s.512-.943 1.203-.943c.201 0 .298.02.298.02-.205.418-.386.801-.574 1.79-1.072-.38-1.154 1.693-1.605 4.248zm6.035-.093s-.83.212-1.35.212c-1.842 0-2.777-1.271-2.777-3.196 0-2.903 1.733-4.449 3.514-4.449.805 0 1.738.378 1.738.378l-.252 1.635s-.631-.441-1.416-.441c-1.05 0-1.992 1.002-1.992 2.823 0 .897.439 1.733 1.535 1.733.521 0 1.276-.379 1.276-.379l-.276 1.684zm3.715.073l.052-.591c-.025.003-.495.709-1.583.709-.57 0-1.49-.311-1.49-1.663 0-1.719 1.402-2.289 2.736-2.289.21 0 .664.038.664.038s.052-.104.052-.388c0-.467-.42-.531-.996-.531-1.013 0-1.681.271-1.681.271l.224-1.33s.812-.34 1.87-.34c.546 0 2.12.058 2.119 1.861l-.606 4.25c-.001.003-1.361.003-1.361.003zm3.207.02H37.82l.963-5.982h1.438l-.138.867s.513-.943 1.204-.943c.201 0 .297.02.297.02-.204.418-.387.801-.574 1.79-1.073-.38-1.155 1.693-1.606 4.248zm4.729-.016l.067-.551s-.512.646-1.438.646c-1.283 0-1.912-1.239-1.912-2.505 0-1.958 1.178-3.665 2.592-3.665.91.002 1.491.805 1.491.805l.334-2.065 1.547-.003-1.18 7.338h-1.501zm3.052-.207a.461.461 0 01-.406.237.471.471 0 01-.404-.237.464.464 0 010-.466.475.475 0 01.404-.236c.08 0 .156.021.23.062a.461.461 0 01.176.64zM47.061 22.4c-.01-.006-.019-.017-.035-.023a.246.246 0 00-.08-.01h-.094v.15h.1c.047 0 .078-.003.096-.02a.066.066 0 00.025-.055.075.075 0 00-.012-.041z"/><path d="M11.022 15.495c-1.13 0-1.36.508-1.36.93 0 .219.125.583.604.583.93 0 1.122-1.218 1.092-1.477-.044-.01-.072-.035-.336-.036zM22.711 13.428c-.841 0-1.003.957-1.003 1.058h1.713c0-.077.161-1.058-.71-1.058zM43.709 13.595c-.68 0-1.216.788-1.215 1.985 0 .73.26 1.198.816 1.198.836 0 1.239-1.091 1.239-1.904 0-.897-.285-1.279-.84-1.279zM47.115 17.552a.377.377 0 00-.146-.145.381.381 0 00-.528.145.403.403 0 00-.053.195c0 .067.018.133.05.194a.409.409 0 00.34.2c.067 0 .133-.02.193-.054a.388.388 0 00.144-.535zm-.217.452l-.045-.078a.404.404 0 00-.084-.118.102.102 0 00-.066-.019h-.046v.214h-.084v-.504h.175c.059 0 .103.005.128.016a.143.143 0 01.064.048.116.116 0 01.023.074.136.136 0 01-.04.096c-.026.029-.062.041-.104.046.02.008.033.017.043.026a.51.51 0 01.074.099l.062.1h-.1zM36.039 15.495c-1.131 0-1.36.508-1.36.93 0 .219.124.583.604.583.929 0 1.121-1.218 1.092-1.477-.045-.01-.073-.035-.336-.036z"/><path d="M46.864 17.602a.091.091 0 00-.034-.025.283.283 0 00-.082-.01h-.091v.153h.099c.047 0 .078-.006.097-.021a.078.078 0 00.024-.056.067.067 0 00-.013-.041z"/><defs><clipPath id="nclip0"><path d="M0 0h49v29H0z"/></clipPath></defs></svg><svg viewBox="0 0 16 16" id="minus" xmlns="http://www.w3.org/2000/svg"><path d="M15.333 7.333H.667a.667.667 0 100 1.334h14.666a.667.667 0 100-1.334z"/><defs><clipPath id="oclip0"><path d="M0 0h16v16H0z"/></clipPath></defs></svg><svg viewBox="0 0 25 17" id="nav-icon" xmlns="http://www.w3.org/2000/svg"><path d="M0 0h24.896v1H0zM0 8h19.917v1H0zM0 16h24.896v1H0z"/></svg><svg viewBox="0 0 16 16" id="plus" xmlns="http://www.w3.org/2000/svg"><path d="M15.2 7.2H8.8V.8a.8.8 0 00-1.6 0v6.4H.8a.8.8 0 000 1.6h6.4v6.4a.8.8 0 001.6 0V8.8h6.4a.8.8 0 000-1.6z"/><defs><clipPath id="qclip0"><path d="M0 0h16v16H0z"/></clipPath></defs></svg><svg viewBox="0 0 50 50" id="return" xmlns="http://www.w3.org/2000/svg"><path d="M33.691 50H11.72C5.257 50 0 44.743 0 38.281V11.72C0 5.257 5.257 0 11.719 0H38.28C44.743 0 50 5.257 50 11.719v17.285c-.103 2.591-3.804 2.59-3.906 0V11.719c0-4.308-3.505-7.813-7.813-7.813H11.72c-4.308 0-7.813 3.505-7.813 7.813V38.28c0 4.308 3.505 7.813 7.813 7.813H33.69c2.592.103 2.59 3.804 0 3.906zm-1.757-39.258A1.953 1.953 0 0029.98 8.79h-9.96c-2.592.103-2.59 3.804 0 3.906h9.96a1.953 1.953 0 001.954-1.953zm-.586 32.13c-.499 0-.998-.19-1.379-.57l-3.25-3.24A5.802 5.802 0 0125 34.928c0-1.563.61-3.032 1.718-4.136l3.266-3.186a1.953 1.953 0 112.727 2.797l-3.241 3.161c-.749.723-.746 2.013.006 2.733l3.25 3.238c1.235 1.224.338 3.347-1.378 3.337zm16.18 4.618c5.313-5.334 1.478-14.597-6.073-14.58h-6.982c-2.592.103-2.59 3.804 0 3.906h6.982a4.644 4.644 0 014.639 4.64c0 2.557-2.06 4.638-4.59 4.638-2.59.102-2.591 3.803 0 3.906a8.415 8.415 0 006.025-2.51z"/></svg><svg viewBox="0 0 16 16" id="star" xmlns="http://www.w3.org/2000/svg"><path d="M.023 5.796a.469.469 0 01.378-.32l4.96-.72L7.58.26a.469.469 0 01.84 0l2.219 4.495 4.96.72a.469.469 0 01.26.8l-3.59 3.499.848 4.94a.469.469 0 01-.68.494L8 12.877l-4.436 2.332a.469.469 0 01-.68-.494l.847-4.94-3.59-3.499a.469.469 0 01-.118-.48z"/></svg><svg viewBox="0 0 32 32" id="telegram" xmlns="http://www.w3.org/2000/svg"><path d="M12.556 20.241l-.53 7.446c.758 0 1.086-.326 1.48-.716l3.55-3.394 7.357 5.388c1.35.752 2.3.356 2.664-1.241l4.83-22.63h.001c.428-1.995-.721-2.775-2.036-2.286L1.485 13.676c-1.937.752-1.908 1.832-.329 2.321l7.257 2.258L25.271 7.707c.793-.526 1.514-.235.921.29L12.556 20.241z"/><defs><clipPath id="tclip0"><path d="M0 0h32v32H0z"/></clipPath></defs></svg><svg viewBox="0 0 25 32" id="user-link" xmlns="http://www.w3.org/2000/svg"><path d="M22.678 19.943a12.5 12.5 0 00-4.085-3.779 9.242 9.242 0 003.093-6.902C21.686 4.155 17.531 0 12.424 0S3.162 4.155 3.162 9.262a9.242 9.242 0 003.092 6.902 12.5 12.5 0 00-4.085 3.779A12.322 12.322 0 000 26.936V32h24.848v-5.064c0-2.505-.75-4.923-2.17-6.993zM5.101 9.263c0-4.039 3.285-7.324 7.323-7.324s7.323 3.285 7.323 7.323-3.285 7.323-7.323 7.323S5.1 13.3 5.1 9.262zM1.939 30.06v-3.125c0-4.109 2.38-7.794 6.101-9.516a9.205 9.205 0 004.384 1.104c1.585 0 3.078-.4 4.383-1.104 3.721 1.722 6.101 5.407 6.101 9.516v3.125H1.94z"/></svg><svg viewBox="0 0 93 29" id="visa" xmlns="http://www.w3.org/2000/svg"><path d="M37.109.474l-4.71 27.58h7.533L44.646.475h-7.537zM26.083.505l-7.378 18.81-.787-2.841C16.463 13.052 12.332 8.138 7.483 5.04l6.746 23.001 7.971-.013L34.063.498l-7.98.007z"/><path d="M15.058 2.479C14.62.799 13.351.298 11.776.238H.096L0 .787c9.089 2.2 15.103 7.501 17.598 13.875L15.058 2.48zM59.913 5.761c2.465-.038 4.251.5 5.638 1.056l.68.319 1.02-5.978C65.759.6 63.42 0 60.502 0c-7.444 0-12.69 3.741-12.731 9.102-.049 3.961 3.737 6.173 6.597 7.494 2.935 1.353 3.92 2.213 3.906 3.422-.023 1.846-2.34 2.693-4.505 2.693-3.016 0-4.618-.416-7.093-1.444l-.97-.441-1.06 6.173c1.763.771 5.016 1.434 8.393 1.47 7.919 0 13.065-3.697 13.119-9.426.033-3.134-1.976-5.525-6.33-7.487-2.635-1.28-4.247-2.131-4.232-3.422 0-1.147 1.368-2.373 4.317-2.373zM86.583.505h-5.82c-1.808 0-3.153.49-3.947 2.289L65.631 28.07h7.91s1.291-3.399 1.584-4.143c.866 0 8.552.012 9.647.012.224.962.918 4.131.918 4.131h6.988L86.583.505zm-9.29 17.777c.62-1.584 3-7.709 3-7.709-.04.076.615-1.595 1.004-2.633l.508 2.378 1.746 7.964h-6.258z"/></svg><svg viewBox="0 0 32 32" id="youtube" xmlns="http://www.w3.org/2000/svg"><path d="M31.292 7.905l.04.262c-.387-1.372-1.43-2.43-2.757-2.816l-.028-.007c-2.495-.677-12.534-.677-12.534-.677S6 4.653 3.48 5.344A4.059 4.059 0 00.703 8.14l-.007.028c-.932 4.868-.939 10.717.041 15.93l-.041-.265c.387 1.372 1.43 2.43 2.757 2.816l.028.007c2.492.678 12.534.678 12.534.678s10.012 0 12.533-.678a4.058 4.058 0 002.779-2.795l.006-.028c.424-2.264.667-4.87.667-7.53l-.001-.295L32 15.7a43.01 43.01 0 00-.708-7.795zM12.811 20.868v-9.724l8.354 4.87-8.354 4.854z"/><defs><clipPath id="wclip0"><path d="M0 0h32v32H0z"/></clipPath></defs></svg></svg>